<svg width="1163" height="1074" viewBox="0 0 1163 1074" fill="none" xmlns="http://www.w3.org/2000/svg">
<path d="M490.78 991.669C578.943 940.769 607.333 867.318 568.466 799.997L568.321 799.747C535.811 743.438 485.373 731.849 401.276 759.714L357.581 774.264C308.799 790.416 280.343 786.824 265.605 761.297L265.461 761.047C248.844 732.267 263.728 697.312 305.912 672.624C346.487 649.198 385.124 651.917 407.588 680.992L409.823 683.705L471.687 647.988L468.98 643.878C429.534 584.233 353.954 572.478 275.059 618.028C197.165 663 166.164 738.292 202.614 802.003L202.758 802.253C233.823 856.059 287.961 868.849 367.617 842.547L411.062 828.142C463.283 811.006 490.448 814.676 506.052 841.704L506.197 841.954C524.114 872.987 507.265 909.743 461.681 936.061C416.347 962.234 373.413 961.329 350.737 933.044L348.503 930.33L286.638 966.047L289.056 969.656C330.737 1032.02 407.878 1039.53 490.78 991.669Z" fill="#333333" fill-opacity="0.05"/>
<path d="M887.784 455.197C975.947 404.297 1004.34 330.846 965.47 263.525L965.325 263.275C932.815 206.966 882.377 195.377 798.28 223.242L754.585 237.792C705.803 253.944 677.347 250.352 662.609 224.825L662.465 224.575C645.848 195.795 660.732 160.841 702.916 136.152C743.49 112.727 782.128 115.445 804.592 144.52L806.827 147.234L868.691 111.517L865.984 107.407C826.538 47.7611 750.958 36.006 672.063 81.5563C594.169 126.528 563.168 201.82 599.618 265.531L599.762 265.781C630.827 319.588 684.965 332.378 764.62 306.076L808.066 291.67C860.287 274.534 887.452 278.204 903.056 305.232L903.201 305.483C921.117 336.515 904.268 373.271 858.684 399.589C813.351 425.763 770.417 424.857 747.741 396.572L745.506 393.858L683.642 429.575L686.06 433.185C727.741 495.544 804.882 503.061 887.784 455.197Z" stroke="url(#paint0_linear_1024_1580)" stroke-opacity="0.3" stroke-width="20"/>
<path d="M654.55 897.119L722.342 857.979L699.028 746.855L833.86 669.01L918.439 744.762L986.482 705.477L648.225 418.802L575.411 460.842L654.55 897.119ZM648.234 504.636L649.74 503.766L788.759 628.583L686.568 687.583L648.234 504.636Z" fill="#333333" fill-opacity="0.05"/>
<path d="M654.698 897.117L722.491 857.977L699.177 746.853L834.009 669.008L918.587 744.76L986.631 705.475L648.373 418.8L575.559 460.84L654.698 897.117ZM648.382 504.634L649.889 503.764L788.907 628.581L686.716 687.581L648.382 504.634Z" fill="#333333" fill-opacity="0.05"/>
<defs>
<linearGradient id="paint0_linear_1024_1580" x1="970.551" y1="71.5" x2="563.051" y2="400" gradientUnits="userSpaceOnUse">
<stop stop-color="#F54B3C"/>
<stop offset="1" stop-color="#F5803A"/>
</linearGradient>
</defs>
</svg>
